<?xml version="1.0" encoding="utf-8"?>
<!-- Generator: Adobe Illustrator 26.3.1, SVG Export Plug-In . SVG Version: 6.00 Build 0)  -->
<svg version="1.1" id="Ebene_1" xmlns="http://www.w3.org/2000/svg" xmlns:xlink="http://www.w3.org/1999/xlink" x="0px" y="0px"
	 viewBox="0 0 161 48" style="enable-background:new 0 0 161 48;" xml:space="preserve">
<style type="text/css">
	.st0{fill:#86C2D4;}
	.st1{font-family:'CircularStd-Bold';}
	.st2{font-size:12px;}
</style>
<path class="st0" d="M4,43.4c0,0.6-0.2,1.1-0.5,1.5c-0.4,0.3-0.9,0.5-1.5,0.5s-1.1-0.2-1.4-0.6C0.2,44.5,0,44,0,43.4L0,4.5
	c0-0.6,0.2-1.1,0.6-1.4C1,2.7,1.5,2.5,2,2.5c0.5,0,1.1,0.3,1.5,0.6C3.9,3.5,4.1,4,4.1,4.5L4,43.4L4,43.4z M48.1,24
	c0,0.6-0.2,1.1-0.6,1.4c-0.3,0.4-0.8,0.6-1.4,0.6l-30.4,0l6.6,6.6c0.4,0.4,0.5,0.8,0.5,1.3s-0.2,1-0.6,1.4c-0.4,0.4-0.9,0.6-1.4,0.6
	c-0.5,0-1-0.2-1.4-0.6l-9.9-9.9C9.2,25.2,9.1,25,9,24.7c-0.1-0.2-0.1-0.5-0.1-0.7c0-0.3,0-0.5,0.1-0.7c0.1-0.3,0.2-0.5,0.4-0.7
	l10-10c0.4-0.4,0.8-0.5,1.3-0.5s1,0.2,1.4,0.6c0.4,0.4,0.6,0.9,0.6,1.4c0,0.5-0.2,1-0.6,1.4L15.7,22l30.4,0c0.6,0,1.1,0.2,1.4,0.6
	C47.9,22.9,48.1,23.4,48.1,24z"/>
<text transform="matrix(1 0 0 1 55.5215 28.045)" class="st0 st1 st2">Hier geht es weiter</text>
</svg>
