<?xml version="1.0" encoding="utf-8"?>
<!-- Generator: Adobe Illustrator 26.3.1, SVG Export Plug-In . SVG Version: 6.00 Build 0)  -->
<svg version="1.1" id="Ebene_1" xmlns="http://www.w3.org/2000/svg" xmlns:xlink="http://www.w3.org/1999/xlink" x="0px" y="0px"
	 viewBox="0 0 161 48" style="enable-background:new 0 0 161 48;" xml:space="preserve">
<style type="text/css">
	.st0{fill:#86C2D4;}
	.st1{font-family:'CircularStd-Bold';}
	.st2{font-size:12px;}
</style>
<path class="st0" d="M4.6,3.9C4,3.9,3.5,3.7,3.1,3.4C2.8,3,2.6,2.5,2.6,1.9s0.2-1.1,0.6-1.4C3.5,0.1,4-0.1,4.6-0.1h38.9
	c0.6,0,1.1,0.2,1.4,0.6c0.4,0.4,0.6,0.9,0.6,1.4S45.2,3,44.9,3.4C44.5,3.8,44,4,43.5,4L4.6,3.9L4.6,3.9z M24,48
	c-0.6,0-1.1-0.2-1.4-0.6C22.2,47.1,22,46.6,22,46V15.6l-6.6,6.6c-0.4,0.4-0.8,0.5-1.3,0.5s-1-0.2-1.4-0.6s-0.6-0.9-0.6-1.4
	s0.2-1,0.6-1.4l9.9-9.9C22.8,9.1,23,9,23.3,8.9c0.2-0.1,0.5-0.1,0.7-0.1c0.3,0,0.5,0,0.7,0.1C25,9,25.2,9.1,25.4,9.3l10,10
	c0.4,0.4,0.5,0.8,0.5,1.3s-0.2,1-0.6,1.4c-0.4,0.4-0.9,0.6-1.4,0.6s-1-0.2-1.4-0.6L26,15.6V46c0,0.6-0.2,1.1-0.6,1.4
	C25.1,47.8,24.6,48,24,48z"/>
<text transform="matrix(1 0 0 1 55.7438 38.877)" class="st0 st1 st2">Hier geht es weiter</text>
</svg>
