<?xml version="1.0" encoding="utf-8"?>
<!-- Generator: Adobe Illustrator 26.3.1, SVG Export Plug-In . SVG Version: 6.00 Build 0)  -->
<svg version="1.1" id="Ebene_1" xmlns="http://www.w3.org/2000/svg" xmlns:xlink="http://www.w3.org/1999/xlink" x="0px" y="0px"
	 viewBox="0 0 48 48" style="enable-background:new 0 0 48 48;" xml:space="preserve">
<style type="text/css">
	.st0{fill:#86C2D4;}
</style>
<path class="st0" d="M24,32.9c0.5,0,0.9-0.2,1.3-0.5c0.3-0.3,0.5-0.8,0.5-1.3V22l3.2,3.2c0.4,0.4,0.8,0.5,1.3,0.5s0.9-0.2,1.3-0.5
	c0.4-0.4,0.5-0.8,0.5-1.3c0-0.5-0.2-0.9-0.5-1.3l-6.2-6.2c-0.2-0.2-0.4-0.3-0.6-0.4c-0.2-0.1-0.4-0.1-0.7-0.1s-0.5,0-0.7,0.1
	c-0.2,0.1-0.4,0.2-0.6,0.4l-6.2,6.2C16.1,23,16,23.4,16,23.9c0,0.5,0.2,0.9,0.5,1.3c0.4,0.4,0.8,0.5,1.3,0.5s0.9-0.2,1.3-0.5
	l3.2-3.2v9.1c0,0.5,0.2,0.9,0.5,1.3C23.1,32.7,23.5,32.9,24,32.9z M24,48c-3.4,0-6.6-0.6-9.5-1.8c-2.9-1.2-5.5-2.9-7.6-5.1
	c-2.2-2.2-3.9-4.7-5.1-7.6S0,27.4,0,24c0-3.4,0.6-6.5,1.8-9.4S4.7,9.1,6.9,7s4.7-3.9,7.6-5.1S20.6,0,24,0c3.4,0,6.5,0.6,9.4,1.9
	C36.3,3.1,38.9,4.8,41,7c2.2,2.2,3.9,4.7,5.1,7.6c1.2,2.9,1.9,6.1,1.9,9.4c0,3.4-0.6,6.6-1.9,9.5c-1.2,2.9-2.9,5.5-5.1,7.6
	c-2.2,2.2-4.7,3.8-7.6,5.1C30.5,47.4,27.4,48,24,48z M24,44.4c5.8,0,10.7-2,14.5-5.9s5.9-8.7,5.9-14.5s-2-10.6-5.9-14.6
	S29.8,3.6,24,3.6s-10.6,2-14.6,5.8S3.6,18.2,3.6,24s2,10.7,5.8,14.5S18.2,44.4,24,44.4z M24,24L24,24L24,24L24,24L24,24L24,24L24,24
	L24,24L24,24z"/>
</svg>
