<?xml version="1.0" encoding="utf-8"?>
<!-- Generator: Adobe Illustrator 26.3.1, SVG Export Plug-In . SVG Version: 6.00 Build 0)  -->
<svg version="1.1" id="Ebene_1" xmlns="http://www.w3.org/2000/svg" xmlns:xlink="http://www.w3.org/1999/xlink" x="0px" y="0px"
	 viewBox="0 0 24 24" style="enable-background:new 0 0 24 24;" xml:space="preserve">
<style type="text/css">
	.st0{fill:#3744BA;}
	.st1{fill:#FFFFFF;}
</style>
<path class="st0" d="M21,24H3c-1.7,0-3-1.3-3-3V3c0-1.7,1.3-3,3-3h18c1.7,0,3,1.3,3,3v18C24,22.7,22.7,24,21,24z"/>
<path class="st1" d="M4.5,13.9c0.3,0,0.5,0.2,0.5,0.5v2.5c0,0.6,0.4,1,1,1h12c0.6,0,1-0.4,1-1v-2.5c0-0.3,0.2-0.5,0.5-0.5
	s0.5,0.2,0.5,0.5v2.5c0,1.1-0.9,2-2,2H6c-1.1,0-2-0.9-2-2v-2.5C4,14.1,4.2,13.9,4.5,13.9z"/>
<path class="st1" d="M11.6,5.1c0.2-0.2,0.5-0.2,0.7,0l0,0l3,3c0.2,0.2,0.2,0.5,0,0.7s-0.5,0.2-0.7,0l-2.1-2.1v8.8
	c0,0.3-0.2,0.5-0.5,0.5s-0.5-0.2-0.5-0.5V6.7L9.4,8.9C9.2,9,8.8,9,8.6,8.9s-0.2-0.5,0-0.7C8.6,8.1,11.6,5.1,11.6,5.1z"/>
</svg>
